<svg width="22.589966" height="22.589844" viewBox="0 0 22.59 22.5898" fill="none" xmlns="http://www.w3.org/2000/svg" xmlns:xlink="http://www.w3.org/1999/xlink">
	<desc>
			Created with Pixso.
	</desc>
	<defs/>
	<path id="Vector" d="M15.91 6.76C15.91 6.76 15.92 6.76 15.92 6.76C16.08 6.76 16.23 6.81 16.35 6.89L16.34 6.89C16.43 6.96 16.49 7.07 16.5 7.19L16.5 7.19C16.52 7.28 16.53 7.39 16.53 7.5C16.53 7.54 16.53 7.59 16.52 7.64L16.52 7.63C16.35 9.41 15.62 13.72 15.25 15.71C15.09 16.55 14.78 16.83 14.48 16.86C13.83 16.92 13.33 16.43 12.7 16.02C11.71 15.37 11.16 14.96 10.2 14.33C9.09 13.6 9.81 13.2 10.44 12.54C10.6 12.37 13.48 9.76 13.53 9.52C13.54 9.5 13.54 9.49 13.54 9.47C13.54 9.41 13.52 9.36 13.48 9.32C13.44 9.29 13.39 9.28 13.34 9.28C13.31 9.28 13.28 9.29 13.25 9.3L13.25 9.3C13.15 9.32 11.57 10.36 8.51 12.43C8.18 12.69 7.76 12.86 7.3 12.88L7.29 12.88C6.64 12.8 6.05 12.65 5.49 12.45L5.55 12.47C4.84 12.24 4.28 12.12 4.33 11.73C4.36 11.53 4.64 11.32 5.17 11.11C8.44 9.68 10.63 8.74 11.72 8.29C12.92 7.65 14.32 7.12 15.79 6.78L15.91 6.76L15.91 6.76ZM11.26 0C5.04 0.01 0 5.06 0 11.29C0 17.53 5.05 22.58 11.29 22.58C17.53 22.58 22.59 17.53 22.59 11.29C22.59 5.06 17.54 0.01 11.32 0L11.32 0C11.3 0 11.28 0 11.26 0Z" fill="#FFD479" fill-opacity="1.000000" fill-rule="nonzero"/>
</svg>
