<svg width="24.000000" height="24.000000" viewBox="0 0 24 24" fill="none" xmlns="http://www.w3.org/2000/svg" xmlns:xlink="http://www.w3.org/1999/xlink">
	<desc>
			Created with Pixso.
	</desc>
	<defs/>
	<path id="Vector" d="M1.68 1.68C0 3.37 0 6.08 0 11.52L0 12.48C0 17.9 0 20.61 1.68 22.31C3.37 24 6.08 24 11.52 24L12.48 24C17.9 24 20.61 24 22.31 22.31C24 20.62 24 17.91 24 12.48L24 11.52C24 6.09 24 3.38 22.31 1.68C20.62 0 17.91 0 12.48 0L11.52 0C6.09 0 3.38 0 1.68 1.68ZM4.04 7.3L6.8 7.3C6.88 11.88 8.9 13.81 10.5 14.21L10.5 7.3L13.08 7.3L13.08 11.24C14.66 11.08 16.32 9.28 16.88 7.29L19.46 7.29C19.25 8.32 18.83 9.29 18.23 10.15C17.62 11.01 16.85 11.73 15.96 12.28C16.95 12.77 17.84 13.48 18.54 14.34C19.25 15.2 19.77 16.21 20.06 17.28L17.22 17.28C16.61 15.39 15.09 13.92 13.08 13.72L13.08 17.28L12.77 17.28L12.76 17.28C7.29 17.28 4.17 13.54 4.04 7.3Z" fill="#FFD479" fill-opacity="1.000000" fill-rule="nonzero"/>
</svg>
