<svg width="18.000000" height="18.000000" viewBox="0 0 18 18" fill="none" xmlns="http://www.w3.org/2000/svg" xmlns:xlink="http://www.w3.org/1999/xlink">
	<desc>
			Created with Pixso.
	</desc>
	<defs/>
	<mask id="mask2307_85" mask-type="alpha" maskUnits="userSpaceOnUse" x="0.000000" y="0.000000" width="18.000000" height="18.000000">
		<path id="Vector" d="M0 0L18 0L18 18L0 18L0 0Z" fill="#000000" fill-opacity="1.000000" fill-rule="evenodd"/>
	</mask>
	<g mask="url(#mask2307_85)">
		<path id="Vector" d="M8.96 17.99L9.03 17.99C12.6 17.99 14.68 17.63 16.15 16.21C17.64 14.69 17.99 12.6 17.99 9.04L17.99 8.94C17.99 5.38 17.64 3.31 16.15 1.78C14.68 0.35 12.59 0 9.03 0L8.96 0C5.38 0 3.31 0.35 1.84 1.78C0.34 3.29 0 5.38 0 8.94L0 9.04C0 12.6 0.34 14.68 1.84 16.21C3.29 17.63 5.38 17.99 8.96 17.99Z" fill="#FFD479" fill-opacity="1.000000" fill-rule="nonzero"/>
		<path id="Vector" d="M15.85 8.86C15.85 8.79 15.79 8.73 15.72 8.73C13.26 8.64 11.77 8.32 10.72 7.27C9.67 6.22 9.36 4.73 9.26 2.26C9.26 2.19 9.21 2.14 9.14 2.14L8.85 2.14C8.78 2.14 8.72 2.19 8.72 2.26C8.63 4.73 8.31 6.22 7.27 7.27C6.22 8.32 4.72 8.64 2.26 8.73C2.19 8.73 2.14 8.79 2.14 8.86L2.14 9.14C2.14 9.21 2.19 9.27 2.26 9.27C4.72 9.37 6.22 9.68 7.27 10.73C8.31 11.77 8.63 13.27 8.72 15.72C8.72 15.79 8.78 15.85 8.85 15.85L9.14 15.85C9.2 15.85 9.26 15.79 9.26 15.72C9.36 13.27 9.67 11.77 10.72 10.73C11.77 9.68 13.26 9.37 15.72 9.27C15.79 9.27 15.85 9.21 15.85 9.14L15.85 8.86L15.85 8.86Z" fill="#1F2A32" fill-opacity="1.000000" fill-rule="nonzero"/>
	</g>
</svg>
